<?xml version="1.0" encoding="UTF-8"?>
<svg width="35px" height="58px" viewBox="0 0 35 58" version="1.1" xmlns="http://www.w3.org/2000/svg" xmlns:xlink="http://www.w3.org/1999/xlink">
    <!-- Generator: Sketch 45.1 (43504) - http://www.bohemiancoding.com/sketch -->
    <title>app</title>
    <desc>Created with Sketch.</desc>
    <defs></defs>
    <g id="App" stroke="none" stroke-width="1" fill="none" fill-rule="evenodd">
        <g id="01.3_echopen_maquette_webdoc" transform="translate(-373.000000, -423.000000)" fill-rule="nonzero" fill="#FFFFFF">
            <g id="CONTENT">
                <g id="4-entrées" transform="translate(99.000000, 412.000000)">
                    <g id="app" transform="translate(274.000000, 11.000000)">
                        <path d="M28.6264732,0 L5.72529464,0 C2.57638259,0 0,2.57638259 0,5.72529464 L0,51.5276518 C0,54.6765639 2.57638259,57.2529464 5.72529464,57.2529464 L28.6264732,57.2529464 C31.7753853,57.2529464 34.3517679,54.6765639 34.3517679,51.5276518 L34.3517679,5.72529464 C34.3517679,2.57638259 31.7753853,0 28.6264732,0 Z M5.72529464,3.00577969 L28.6264732,3.00577969 C30.0577969,3.00577969 31.3459882,4.15083862 31.3459882,5.72529464 L31.3459882,10.162398 L3.00577969,10.162398 L3.00577969,5.72529464 C3.00577969,4.29397098 4.29397098,3.00577969 5.72529464,3.00577969 Z M28.6264732,54.2471668 L5.72529464,54.2471668 C4.29397098,54.2471668 3.00577969,53.1021078 3.00577969,51.5276518 L3.00577969,11.3074569 L31.2028558,11.3074569 L31.2028558,51.5276518 C31.3459882,52.9589755 30.0577969,54.2471668 28.6264732,54.2471668 Z" id="Shape"></path>
                        <circle id="Oval" cx="17.1758839" cy="48.2356074" r="2.86264732"></circle>
                        <circle id="Oval" cx="7.15661831" cy="6.58408884" r="1.43132366"></circle>
                        <circle id="Oval" cx="11.0211922" cy="6.58408884" r="1.43132366"></circle>
                        <circle id="Oval" cx="15.0288984" cy="6.58408884" r="1.43132366"></circle>
                    </g>
                </g>
            </g>
        </g>
    </g>
</svg>