<?xml version="1.0" encoding="UTF-8"?>
<svg width="58px" height="58px" viewBox="0 0 58 58" version="1.1" xmlns="http://www.w3.org/2000/svg" xmlns:xlink="http://www.w3.org/1999/xlink">
    <!-- Generator: Sketch 43.1 (39012) - http://www.bohemiancoding.com/sketch -->
    <title>BTN - Espace presse</title>
    <desc>Created with Sketch.</desc>
    <defs>
        <rect id="path-1" x="0" y="0" width="50" height="50" rx="25"></rect>
        <rect id="path-3" x="0" y="0" width="50" height="50" rx="25"></rect>
        <filter x="-14.0%" y="-10.0%" width="128.0%" height="128.0%" filterUnits="objectBoundingBox" id="filter-5">
            <feOffset dx="0" dy="2" in="SourceAlpha" result="shadowOffsetOuter1"></feOffset>
            <feGaussianBlur stdDeviation="2" in="shadowOffsetOuter1" result="shadowBlurOuter1"></feGaussianBlur>
            <feComposite in="shadowBlurOuter1" in2="SourceAlpha" operator="out" result="shadowBlurOuter1"></feComposite>
            <feColorMatrix values="0 0 0 0 0   0 0 0 0 0   0 0 0 0 0  0 0 0 0.164968297 0" type="matrix" in="shadowBlurOuter1"></feColorMatrix>
        </filter>
    </defs>
    <g id="Symbols" stroke="none" stroke-width="1" fill="none" fill-rule="evenodd">
        <g id="HEADER" transform="translate(-886.000000, 1.000000)">
            <g id="BTN---Espace-presse">
                <g transform="translate(890.000000, 1.000000)">
                    <g id="Shape-+-Shape-+-Shape-+-Shape-+-Shape-+-Shape-Mask">
                        <mask id="mask-2" fill="white">
                            <use xlink:href="#path-1"></use>
                        </mask>
                        <g id="Mask"></g>
                        <mask id="mask-4" fill="white">
                            <use xlink:href="#path-3"></use>
                        </mask>
                        <g id="Mask">
                            <use fill="black" fill-opacity="1" filter="url(#filter-5)" xlink:href="#path-3"></use>
                            <use fill="#FFFFFF" fill-rule="evenodd" xlink:href="#path-3"></use>
                            <rect stroke="#136CFF" stroke-width="1" x="0.5" y="0.5" width="49" height="49" rx="24.5"></rect>
                        </g>
                        <path d="M25.1992548,26.012188 C29.3131676,26.012188 32.6520701,21.2332442 32.6520701,17.1236274 C32.6520701,13.0079962 29.3131676,9.67081215 25.1992548,9.67081215 C21.081046,9.67081215 17.7447211,13.0079962 17.7447211,17.1236274 C17.7447211,21.2332442 21.0784683,26.012188 25.1992548,26.012188 Z" id="Shape" fill="#136CFF" fill-rule="nonzero" mask="url(#mask-4)"></path>
                        <path d="M33.4528568,53.6436252 L31.3228673,53.6436252 L29.427443,81.531108 L31.9724325,81.531108 L35.7392231,84.0889857 C35.7924944,83.7934163 35.8225668,83.4944102 35.7959312,83.1842342 L33.4528568,54.0148053 L33.4528568,53.6436252 L33.4528568,53.6436252 Z" id="Shape" fill="#5548C8" fill-rule="nonzero" mask="url(#mask-4)"></path>
                        <path d="M20.9736443,81.531108 L19.0765016,53.6436252 L16.9447936,53.6436252 L16.9447936,54.0165237 L14.60086,83.1842342 C14.5750836,83.4961286 14.6051561,83.7934163 14.6558497,84.0889857 L18.4234996,81.5319672 L20.9736443,81.531108 L20.9736443,81.531108 Z" id="Shape" fill="#5548C8" fill-rule="nonzero" mask="url(#mask-4)"></path>
                        <path d="M12.3703426,52.3462133 L11.1399493,52.3462133 L11.1399493,43.901866 L15.0424956,43.901866 L16.1276819,34.1351895 C16.3777129,34.0587196 16.6500835,33.9788127 16.9456529,33.8946099 L16.9456529,43.901866 L23.0134165,43.901866 L22.8407146,43.5994229 L23.3072674,39.9640919 C23.0847312,39.45286 22.9274951,38.8789056 22.9274951,38.2198891 L22.9274951,38.0093819 C22.0236029,37.4251169 21.4444932,36.4172598 21.4444932,35.3183261 L21.4444932,33.4667217 C21.4444932,31.7225189 22.8286856,30.3271567 24.5514081,30.2403761 L24.821201,28.1456143 L24.8005799,28.1456143 L24.0504868,26.6454281 C18.6030751,26.9263908 12.6710672,29.0546619 12.4029927,29.1508938 C12.2371645,29.2084611 12.1134378,29.3304693 11.9656532,29.4120946 C11.8127132,29.5057488 11.6528996,29.5753451 11.5119886,29.6844652 C11.3461604,29.8313906 11.2258706,30.0066701 11.0969886,30.1785128 C11.0007567,30.3108316 10.8821853,30.4225293 10.8065746,30.5780469 C10.703469,30.7756659 10.6562122,30.9913285 10.6046595,31.2035541 C10.5694317,31.3375914 10.4912433,31.4492891 10.4783551,31.5970738 L8.11895568,52.8170621 C7.93766169,54.4392566 9.103614,55.8878901 10.7215125,56.0700433 C10.8306325,56.0812131 10.9449079,56.0923828 11.0514503,56.0923828 C12.4691521,56.0923828 13.6660361,55.0561717 13.919504,53.6470621 L12.3669057,53.6470621 L12.3669057,52.3462133 L12.3703426,52.3462133 L12.3703426,52.3462133 Z" id="Shape" fill="#136CFF" fill-rule="nonzero" mask="url(#mask-4)"></path>
                        <path d="M39.9149993,31.5936369 C39.9038295,31.4484299 39.8256411,31.3298585 39.7869765,31.1898067 C39.7354237,30.9792995 39.6907446,30.7687922 39.5902167,30.5797653 C39.5094507,30.4216701 39.3934569,30.2936473 39.285196,30.1578917 C39.1588917,29.9972188 39.0454755,29.8322499 38.8899579,29.6930573 C38.7438917,29.5701898 38.5746267,29.4945791 38.414813,29.4043617 C38.2678876,29.3235956 38.1544714,29.2067426 37.9980946,29.1500346 C37.7231464,29.0546619 31.7928569,26.9263908 26.3463045,26.6445689 L25.5901968,28.1447551 L25.8453832,30.2395169 C27.5681056,30.3220014 28.9565942,31.7225189 28.9565942,33.4658625 L28.9565942,35.3174669 C28.9565942,36.4172598 28.375766,37.4242577 27.472733,38.0085226 L27.472733,38.2190299 C27.472733,38.8797648 27.3112009,39.4537192 27.0895239,39.9649511 L27.5560766,43.5985637 L27.3859524,43.9010068 L33.453716,43.9010068 L33.453716,33.8946099 C33.7458485,33.979672 34.0156415,34.0587196 34.2691094,34.1351895 L35.3542956,43.901866 L39.2585604,43.901866 L39.2585604,52.3462133 L38.0281671,52.3462133 L38.0281671,53.6436252 L36.4755689,53.6436252 C36.7281775,55.0535941 37.9259207,56.0906644 39.3436225,56.0906644 C39.450165,56.0906644 39.5635811,56.0777762 39.6727012,56.0674656 C41.2888812,55.8861717 42.4556927,54.4332421 42.2769764,52.8153437 L39.9149993,31.5936369 Z" id="Shape" fill="#136CFF" fill-rule="nonzero" mask="url(#mask-4)"></path>
                        <path d="M26.6805384,84.0950002 L28.9239441,51.0788738 L35.4625565,51.0788738 L35.4625565,49.7831803 L36.6929498,49.7831803 L36.6929498,46.4674766 L25.5420809,46.4674766 L25.5420809,40.0577461 C25.9175571,39.7785018 26.1899277,39.0670733 26.1899277,38.2224667 L26.1899277,37.1982846 C27.0310974,36.9697339 27.6712112,36.232529 27.6712112,35.3209038 L27.6712112,33.4692993 C27.6712112,32.3849723 26.783644,31.4956866 25.6967393,31.4956866 L24.7086441,31.4956866 C23.6234578,31.4956866 22.7350314,32.3815354 22.7350314,33.4692993 L22.7350314,35.3209038 C22.7350314,36.232529 23.374286,36.9697339 24.2180334,37.1982846 L24.2180334,38.2224667 C24.2180334,39.0670733 24.490404,39.779361 24.8658801,40.0577461 L24.8658801,46.4674766 L13.7132928,46.4674766 L13.7132928,49.7831803 L14.9428269,49.7831803 L14.9428269,51.0788738 L21.4814393,51.0788738 L23.7257042,84.0950002 L19.2139757,84.0950002 L14.935094,87 L35.4591196,87 L31.1810971,84.0950002 L26.6805384,84.0950002 L26.6805384,84.0950002 Z" id="Shape" fill="#136CFF" fill-rule="nonzero" mask="url(#mask-4)"></path>
                    </g>
                </g>
            </g>
        </g>
    </g>
</svg>