<?xml version="1.0" encoding="UTF-8"?>
<svg width="52px" height="65px" viewBox="0 0 52 65" version="1.1" xmlns="http://www.w3.org/2000/svg" xmlns:xlink="http://www.w3.org/1999/xlink">
    <!-- Generator: Sketch 45.1 (43504) - http://www.bohemiancoding.com/sketch -->
    <title>echo</title>
    <desc>Created with Sketch.</desc>
    <defs></defs>
    <g id="App" stroke="none" stroke-width="1" fill="none" fill-rule="evenodd">
        <g id="01.3_echopen_maquette_webdoc" transform="translate(-147.000000, -419.000000)" stroke="#FFFFFF">
            <g id="CONTENT">
                <g id="4-entrées" transform="translate(99.000000, 412.000000)">
                    <g id="echo" transform="translate(73.259204, 37.944802) rotate(158.000000) translate(-73.259204, -37.944802) translate(40.759204, 12.444802)">
                        <path d="M57.8860975,17.9440819 L46.9145731,6.97255754" id="Shape" stroke-width="3" stroke-linejoin="round"></path>
                        <path d="M61.7825267,14.1501903 L30.8161682,45.1165488 C30.611093,45.321624 30.3034801,45.5266992 30.0984049,45.6292369 L15.5380642,50.0383541 C15.2304513,50.1408917 14.9228385,49.9358165 14.8203009,49.7307413 C14.8203009,49.6282037 14.8203009,49.5256661 14.8203009,49.4231285 L19.3319558,34.8627877 C19.4344934,34.5551749 19.537031,34.3500997 19.7421062,34.1450244 L50.7084647,3.07612833 C53.784593,5.55111512e-16 58.7063984,5.55111512e-16 61.7825267,3.07612833 C64.858655,6.15225665 64.858655,11.074062 61.7825267,14.1501903 Z" id="Shape" stroke-width="3" stroke-linecap="round" stroke-linejoin="round"></path>
                        <path d="M19.8446438,34.0424868 L30.8161682,45.0140112" id="Shape" stroke-width="3" stroke-linejoin="round"></path>
                        <path d="M15.0773293,50.2176593 C-2.44090967,44.1395891 -2.2034866,41.6923068 5.23407972,23.8801007" id="Path-2"></path>
                    </g>
                </g>
            </g>
        </g>
    </g>
</svg>