<?xml version="1.0" encoding="UTF-8"?>
<svg width="66px" height="47px" viewBox="0 0 66 47" version="1.1" xmlns="http://www.w3.org/2000/svg" xmlns:xlink="http://www.w3.org/1999/xlink">
    <!-- Generator: Sketch 45.1 (43504) - http://www.bohemiancoding.com/sketch -->
    <title>edu</title>
    <desc>Created with Sketch.</desc>
    <defs></defs>
    <g id="App" stroke="none" stroke-width="1" fill="none" fill-rule="evenodd">
        <g id="01.3_echopen_maquette_webdoc" transform="translate(-817.000000, -423.000000)" fill-rule="nonzero" fill="#FFFFFF">
            <g id="CONTENT">
                <g id="4-entrées" transform="translate(99.000000, 412.000000)">
                    <path d="M782.801856,26.4168784 L751.940177,11.5872401 C751.539376,11.3467595 750.978254,11.3467595 750.577453,11.5872401 L719.635613,26.4168784 C719.074492,26.657359 718.753851,27.2986407 718.753851,27.8597621 C718.753851,28.5010438 719.154652,29.0621652 719.715773,29.3026459 L728.613556,33.1503358 C728.613556,33.1503358 728.613556,39.6165925 728.613556,52.5491059 C728.613556,53.1903876 729.014357,53.8316692 729.655639,54.0721499 C736.629577,56.7174367 743.924156,58 751.298895,58 C758.673634,58 765.968213,56.7174367 772.942151,54.0721499 C773.583433,53.8316692 773.984234,53.2705478 773.984234,52.5491059 L773.984234,33.3106562 C773.984234,33.3106562 776.950161,32.0013728 782.882017,29.3828061 C783.443138,29.1423255 783.843939,28.581204 783.843939,27.9399223 C783.683619,27.2986407 783.362978,26.7375192 782.801856,26.4168784 Z M770.697665,51.5070232 C758.112513,55.9158346 744.405117,55.9158346 731.819965,51.5070232 L731.819965,34.5932195 L750.577453,42.7695607 C750.817934,42.8497209 750.978254,42.9298811 751.218735,42.9298811 C751.459215,42.9298811 751.619536,42.8497209 751.860016,42.7695607 L770.697665,34.5932195 L770.697665,51.5070232 Z M751.218735,39.5631524 L724.204745,27.8597621 L751.218735,14.8738086 L778.232725,27.8597621 L751.218735,39.5631524 Z" id="edu"></path>
                </g>
            </g>
        </g>
    </g>
</svg>