<?xml version="1.0" encoding="UTF-8"?>
<svg width="46px" height="45px" viewBox="0 0 46 45" version="1.1" xmlns="http://www.w3.org/2000/svg" xmlns:xlink="http://www.w3.org/1999/xlink">
    <!-- Generator: Sketch 45.1 (43504) - http://www.bohemiancoding.com/sketch -->
    <title>Shape</title>
    <desc>Created with Sketch.</desc>
    <defs></defs>
    <g id="App" stroke="none" stroke-width="1" fill="none" fill-rule="evenodd">
        <g id="01.5_echopen_maquette_webdoc" transform="translate(-104.000000, -455.000000)" fill-rule="nonzero" fill="#FFFFFF">
            <g id="CONTENT">
                <g id="Réseaux-sociaux" transform="translate(98.000000, 361.000000)">
                    <g id="3-Entrées" transform="translate(0.000000, 87.000000)">
                        <g id="FB">
                            <path d="M48.8145968,7.44058705 L9.17528567,7.44058705 C7.81622358,7.44058705 6.71523475,8.54157588 6.71523475,9.90063797 L6.71523475,49.5418057 C6.71523475,50.8990112 7.81622358,52 9.17528567,52 L30.5173878,52 L30.5173878,34.7443673 L24.709811,34.7443673 L24.709811,28.0196093 L30.5173878,28.0196093 L30.5173878,23.0605179 C30.5173878,17.3049271 34.0320115,14.170915 39.1674839,14.170915 C41.6275348,14.170915 43.7403936,14.3547226 44.3567988,14.4364149 L44.3567988,20.4519356 L40.7957591,20.4537923 C38.0033692,20.4537923 37.4630863,21.7812915 37.4630863,23.7270525 L37.4630863,28.0214659 L44.1228619,28.0214659 L43.25581,34.746224 L37.4630863,34.746224 L37.4630863,52 L48.8183101,52 C50.1736589,52 51.2746477,50.8990112 51.2746477,49.5399491 L51.2746477,9.90063797 C51.2746477,8.54157588 50.1736589,7.44058705 48.8145968,7.44058705 L48.8145968,7.44058705 Z" id="Shape"></path>
                        </g>
                    </g>
                </g>
            </g>
        </g>
    </g>
</svg>