<?xml version="1.0" encoding="UTF-8"?>
<svg width="35px" height="70px" viewBox="0 0 35 70" version="1.1" xmlns="http://www.w3.org/2000/svg" xmlns:xlink="http://www.w3.org/1999/xlink">
    <!-- Generator: Sketch 45.1 (43504) - http://www.bohemiancoding.com/sketch -->
    <title>gele</title>
    <desc>Created with Sketch.</desc>
    <defs></defs>
    <g id="App" stroke="none" stroke-width="1" fill="none" fill-rule="evenodd">
        <g id="01.3_echopen_maquette_webdoc" transform="translate(-604.000000, -412.000000)" fill-rule="nonzero" fill="#FFFFFF">
            <g id="CONTENT">
                <g id="4-entrées" transform="translate(99.000000, 412.000000)">
                    <path d="M533.132452,22.6223713 C532.275574,21.5401165 530.91885,19.7162752 530.11032,18.5574071 L529.109885,17.1218388 C528.48731,16.227026 528.326645,15.2548561 528.40549,15.0324546 C528.928394,14.173345 528.961866,13.1290249 528.556485,12.3532229 C529.382123,11.8816424 529.826182,10.8209583 529.765933,9.55646802 L537.593871,9.55646802 L537.593871,12.7355453 C537.593871,13.3514264 538.093717,13.8512719 538.709598,13.8512719 C539.325479,13.8512719 539.825324,13.3514264 539.825324,12.7355453 L539.825324,8.44074133 C539.825324,7.8248602 539.325479,7.32501464 538.709598,7.32501464 L529.258649,7.32501464 L529.135175,6.91591486 C528.581775,5.07868491 526.576442,3.7279118 524.664086,3.91089098 L524.106967,3.96295823 L524.106967,2.55639878 L525.75973,2.55639878 C526.375611,2.55639878 526.875457,2.05655323 526.875457,1.4406721 C526.875457,0.824790965 526.375611,0.324945409 525.75973,0.324945409 L520.224982,0.324945409 C519.609101,0.324945409 519.109255,0.824790965 519.109255,1.4406721 C519.109255,2.05655323 519.609101,2.55639878 520.224982,2.55639878 L521.876257,2.55639878 L521.876257,4.1749463 L521.644186,4.19651701 C520.854996,4.27164261 519.981753,4.57809554 519.166529,5.01471658 C519.111487,5.03703112 519.057932,5.06529619 519.006608,5.09728036 C518.110308,5.60307646 517.302522,6.2695372 516.789287,6.98434609 L515.848358,8.29197777 C515.40058,8.91455326 514.83751,9.76027409 514.298242,10.6052511 C514.150966,10.727981 514.031211,10.887158 513.961292,11.0805507 C513.949391,11.1125348 513.945672,11.1452628 513.93749,11.1779908 C513.590127,11.7343665 513.268798,12.2691715 513.017387,12.7124869 L508.361832,20.9153095 C507.421646,22.5710479 507.478176,24.7377891 508.492,25.9531874 C508.981432,26.5408035 509.557891,28.1325735 509.595082,29.3806998 L509.642686,30.971726 L508.40423,30.971726 C506.561793,30.971726 505.063,32.4712627 505.063,34.3129556 L505.063,56.571703 C505.063,58.4141396 506.562537,59.9129325 508.40423,59.9129325 L510.558326,59.9129325 C510.672874,61.2235394 510.877424,62.7282828 511.093875,63.764421 C511.216605,64.3512932 512.652173,69.5 525.014425,69.5 C537.749329,69.5 538.159916,63.5487139 538.171074,63.2958158 C538.235042,61.8684295 538.287109,59.5425112 538.287109,58.1114058 L538.287109,32.0874527 C538.287109,30.4302267 537.480811,28.1139781 536.451367,26.8137846 L533.132452,22.6223713 Z M524.874587,6.13341854 C524.924423,6.12821182 524.975002,6.12598036 525.024838,6.12598036 C525.875022,6.12598036 526.759421,6.76938275 526.997443,7.56080488 L527.398361,8.89223873 C527.640101,9.69630576 527.512909,10.2564006 527.422907,10.4192967 C527.122404,10.5226873 526.875457,10.6714509 526.65975,10.8402975 L521.715593,6.44210292 C521.761709,6.43540856 521.809314,6.42276366 521.853943,6.41830076 L524.874587,6.13341854 Z M517.659554,9.59514654 L518.601228,8.28677105 C518.812472,7.9922192 519.124132,7.70287408 519.48042,7.43956258 L526.561566,13.7389555 C526.545945,13.7835845 526.52735,13.8289574 526.499829,13.8750741 C526.417265,14.0119366 526.356272,14.1607001 526.304948,14.3161581 L516.766973,10.9005468 C517.085327,10.417809 517.394755,9.96333635 517.659554,9.59514654 Z M507.294453,56.571703 L507.294453,34.3129556 C507.294453,33.7007935 507.792067,33.2031794 508.40423,33.2031794 L509.70963,33.2031794 L510.443034,57.6814791 L508.40423,57.6814791 C507.791324,57.6814791 507.294453,57.183865 507.294453,56.571703 Z M536.054912,58.1114058 C536.054912,59.5157338 536.004332,61.7955353 535.943339,63.1663915 C535.938133,63.2073015 535.405559,67.2685466 525.013681,67.2685466 C514.477502,67.2685466 513.281443,63.3166427 513.277724,63.3077169 C513.003255,61.9919032 512.736968,59.7552431 512.697546,58.4223216 L511.825048,29.3137562 C511.774468,27.6304965 511.078254,25.5723527 510.205756,24.5250572 C509.840542,24.0869486 509.803351,22.8968401 510.302453,22.0169037 L514.958008,13.8140811 C515.124623,13.520273 515.322479,13.185555 515.538186,12.8314978 L526.350321,16.7030694 C526.380074,16.7142266 526.411314,16.7112514 526.441811,16.7186895 C526.64041,17.3174629 526.934218,17.9013598 527.27935,18.3974863 L528.280529,19.8345423 C529.110629,21.0246507 530.503056,22.8968401 531.383736,24.0081039 L534.701908,28.1995171 C535.422667,29.1106939 536.054912,30.9278408 536.054912,32.0889404 L536.054912,58.1114058 Z" id="gele"></path>
                </g>
            </g>
        </g>
    </g>
</svg>