<?xml version="1.0" encoding="UTF-8" standalone="no"?>
<svg width="57px" height="57px" viewBox="0 0 57 57" version="1.1" xmlns="http://www.w3.org/2000/svg" xmlns:xlink="http://www.w3.org/1999/xlink">
    <!-- Generator: Sketch 45.1 (43504) - http://www.bohemiancoding.com/sketch -->
    <title>Shape</title>
    <desc>Created with Sketch.</desc>
    <defs></defs>
    <g id="App" stroke="none" stroke-width="1" fill="none" fill-rule="evenodd">
        <g id="04.1_echopen_wireframe_about" transform="translate(-240.000000, -496.000000)" stroke="#FFFFFF" fill-rule="nonzero" fill="#FFFFFF">
            <g id="world" transform="translate(241.253558, 496.387572)">
                <path d="M27.4128056,0.623021262 C12.2806826,0.623021262 0,12.9036777 0,28.0358397 C0,43.1679634 12.2806826,55.4486453 27.4128056,55.4486453 C42.5449294,55.4486453 54.8256113,43.1679634 54.8256113,28.0358397 C54.8256113,12.9036777 42.5449294,0.623021262 27.4128056,0.623021262 L27.4128056,0.623021262 Z M26.7752985,1.93787967 L26.7752985,14.0106705 L16.0970545,14.0106705 C16.6432285,12.3265043 17.288174,10.7771644 18.0095758,9.388744 C20.2981211,5.29863864 23.0891018,2.29749106 26.7752985,1.93787967 Z M28.0503128,1.93787967 C31.4323594,2.24146056 34.50499,4.94087603 36.8160355,9.388744 C37.5374385,10.7771644 38.1823854,12.3265043 38.7285568,14.0106705 L28.0503128,14.0106705 L28.0503128,1.93787967 Z M22.0338394,2.4558542 C20.0420141,3.88132647 18.2874059,6.070851 16.8740163,8.79108108 C16.0593064,10.3590808 15.3544014,12.1131561 14.762274,14.0106705 L5.35904413,14.0106705 C9.07687912,8.17491134 15.0324278,3.91619811 22.0338394,2.4558542 Z M32.7917719,2.4558542 C39.7931809,3.91619811 45.7487341,8.17491134 49.4665672,14.0106705 L40.0633373,14.0106705 C39.471208,12.1131561 38.7663036,10.3590808 37.951595,8.79108108 C36.5382035,6.070851 34.7835972,3.88132647 32.7917719,2.4558542 Z M4.58208234,15.2856847 L14.3837541,15.2856847 C13.3848481,18.922089 12.8015769,23.0392566 12.7501422,27.3983326 L1.29493657,27.3983326 C1.39954128,23.0066481 2.57045416,18.882774 4.58208234,15.2856847 Z M15.7185346,15.2856847 L26.7752985,15.2856847 L26.7752985,27.3983326 L14.0251564,27.3983326 C14.0791915,23.0075278 14.6932868,18.8813715 15.7185346,15.2856847 Z M28.0503128,15.2856847 L39.1070767,15.2856847 C40.132322,18.8813715 40.7464198,23.0075278 40.8004549,27.3983326 L28.0503128,27.3983326 L28.0503128,15.2856847 Z M40.4418572,15.2856847 L50.243529,15.2856847 C52.2551571,18.882774 53.4260728,23.0066481 53.530675,27.3983326 L42.0754691,27.3983326 C42.0240223,23.0392566 41.4407607,18.922089 40.4418572,15.2856847 Z M1.29493657,28.6733468 L12.7501422,28.6733468 C12.8016846,33.0410992 13.4008183,37.1493863 14.4036762,40.7859818 L4.58208234,40.7859818 C2.57045416,37.1889117 1.39954128,33.0650057 1.29493657,28.6733468 Z M14.0251564,28.6733468 L26.7752985,28.6733468 L26.7752985,40.7859818 L15.7185346,40.7859818 C14.6928341,37.1952868 14.0792036,33.0644957 14.0251564,28.6733468 Z M28.0503128,28.6733468 L40.8004549,28.6733468 C40.7463943,33.0644957 40.1327746,37.1952868 39.1070767,40.7859818 L28.0503128,40.7859818 L28.0503128,28.6733468 Z M42.0754691,28.6733468 L53.530675,28.6733468 C53.4260728,33.0650057 52.2551571,37.1889117 50.243529,40.7859818 L40.4219351,40.7859818 C41.4247911,37.1493863 42.0239267,33.0410992 42.0754691,28.6733468 Z M5.35904413,42.060996 L14.762274,42.060996 C15.3532717,43.9487821 16.0619043,45.6976553 16.8740163,47.2606315 C18.2952893,49.996047 20.0679753,52.1855652 22.0736836,53.6158124 C15.0556286,52.1630612 9.08370491,47.9074462 5.35904413,42.060996 Z M16.1169766,42.060996 L26.7752985,42.060996 L26.7752985,54.1337869 C23.3932519,53.8281022 20.3206213,51.1108557 18.0095758,46.6629686 C17.2916523,45.2812357 16.6614312,43.7333684 16.1169766,42.060996 Z M28.0503128,42.060996 L38.7086347,42.060996 C38.1641781,43.7333684 37.5339577,45.2812357 36.8160355,46.6629686 C34.50499,51.1108557 31.4323594,53.8281022 28.0503128,54.1337869 L28.0503128,42.060996 Z M40.0633373,42.060996 L49.4665672,42.060996 C45.7419064,47.9074462 39.7699821,52.1630612 32.7519277,53.6158124 C34.757636,52.1855652 36.5303239,49.996047 37.951595,47.2606315 C38.763709,45.6976553 39.4723427,43.9487821 40.0633373,42.060996 Z" id="Shape"></path>
            </g>
        </g>
    </g>
</svg>