<?xml version="1.0" encoding="UTF-8" standalone="no"?>
<svg width="58px" height="57px" viewBox="0 0 58 57" version="1.1" xmlns="http://www.w3.org/2000/svg" xmlns:xlink="http://www.w3.org/1999/xlink">
    <!-- Generator: Sketch 45.1 (43504) - http://www.bohemiancoding.com/sketch -->
    <title>Shape</title>
    <desc>Created with Sketch.</desc>
    <defs></defs>
    <g id="App" stroke="none" stroke-width="1" fill="none" fill-rule="evenodd">
        <g id="04.1_echopen_wireframe_about" transform="translate(-488.000000, -497.000000)" stroke="#FFFFFF" stroke-width="2" fill="#FFFFFF" fill-rule="nonzero">
            <g id="Group-2" transform="translate(433.000000, 498.000000)">
                <path d="M107.490149,54.4648872 L60.3585165,54.4648872 C56.4747646,54.4648872 56.2114594,51.0419194 56.0798068,49.001304 C56.0798068,48.8038251 56.0798068,48.5405199 56.0139805,48.343041 C55.7506753,45.5783363 62.2674793,42.023716 63.518179,41.4971055 C64.0447894,41.2338003 64.9005314,40.8388425 66.0195785,40.3122321 C68.9817621,38.8640534 74.5111716,36.2310013 75.2352609,35.5727383 C75.3010872,35.506912 75.3669135,35.4410857 75.3669135,35.3094331 C75.3669135,34.7169963 74.5111716,33.5321229 73.3921244,32.5447284 C72.0755984,31.2282023 69.7058515,27.2127978 68.5868043,19.9060782 C67.2702783,11.2828326 70.7590723,6.28003355 73.9187348,3.58115514 C78.1974445,0.0265347873 83.726854,0.0265347873 83.9243329,0.0265347873 C84.1876381,0.0265347873 89.7170475,0.09236109 94.1932361,3.64698144 C98.735251,7.13577549 100.578387,12.9284901 99.5251666,19.9719045 C98.4061195,27.2786241 96.0363726,31.3598549 94.7856728,32.6105547 C93.4033205,33.992907 92.7450574,35.1119542 92.8108837,35.5727383 C92.8108837,35.6385646 92.8108837,35.6385646 92.87671,35.6385646 C93.732452,36.2310013 99.5909929,39.1273586 102.750655,40.6413636 C103.606397,41.0363214 104.26466,41.3654529 104.725445,41.6287581 C104.791271,41.6945844 112.09799,45.4466837 111.834685,48.4746936 C111.834685,48.6721725 111.834685,48.8696514 111.768859,49.1329567 C111.637206,51.1077457 111.373901,54.4648872 107.490149,54.4648872 Z M83.9243329,1.34306084 C83.8585066,1.34306084 78.6582286,1.40888715 74.8403031,4.63437598 C70.693246,8.18899633 68.9817621,13.3892742 69.9691567,19.7744256 C71.0223775,26.7520137 73.2604718,30.5699393 74.379519,31.6231601 C74.7744768,31.9522916 76.7492659,33.7296018 76.7492659,35.3094331 C76.7492659,35.8360435 76.551787,36.2310013 76.1568291,36.5601328 C75.3010872,37.2183959 71.1540301,39.2590112 66.6120152,41.4971055 C65.5587944,42.023716 64.6372262,42.4186738 64.1106157,42.681979 C61.4117373,43.9326787 57.2646802,47.026515 57.3963328,48.2772147 C57.3963328,48.4746936 57.3963328,48.7379988 57.3963328,48.9354777 C57.5938118,51.3710509 57.857117,53.1483611 60.3585165,53.1483611 L107.490149,53.1483611 C109.991549,53.1483611 110.254854,51.3710509 110.452333,48.9354777 C110.452333,48.6721725 110.452333,48.4746936 110.518159,48.2772147 C110.649812,46.8948624 106.831886,44.0643313 104.133008,42.681979 C103.672224,42.4845001 103.013961,42.1553686 102.224045,41.6945844 C97.6162038,39.3906638 93.0741889,37.1525695 92.218447,36.5601328 C91.8234892,36.2968276 91.6260103,35.9676961 91.6260103,35.506912 C91.4943577,34.1903859 93.0741889,32.4789021 93.9957572,31.4915075 C95.048978,30.4382867 97.3528986,26.6203611 98.4061195,19.642773 C99.393514,13.125969 97.6820301,7.72821221 93.5349731,4.56854968 C89.2562634,1.34306084 83.9901592,1.34306084 83.9243329,1.34306084 Z" id="Shape"></path>
            </g>
        </g>
    </g>
</svg>