<?xml version="1.0" encoding="UTF-8" standalone="no"?>
<svg width="45px" height="53px" viewBox="0 0 45 53" version="1.1" xmlns="http://www.w3.org/2000/svg" xmlns:xlink="http://www.w3.org/1999/xlink">
    <!-- Generator: Sketch 45.1 (43504) - http://www.bohemiancoding.com/sketch -->
    <title>Shape</title>
    <desc>Created with Sketch.</desc>
    <defs></defs>
    <g id="App" stroke="none" stroke-width="1" fill="none" fill-rule="evenodd">
        <g id="04.1_echopen_wireframe_about" transform="translate(-756.000000, -498.000000)" fill-rule="nonzero" fill="#FFFFFF">
            <g id="Group" transform="translate(660.000000, 498.000000)">
                <path d="M135.451545,29.0804093 C132.377617,29.0804093 129.892314,31.5657124 129.892314,34.6396399 C129.892314,37.2557485 131.72359,39.414038 134.143491,40.0026624 L134.143491,43.0765899 C134.143491,46.6083365 131.265771,49.5514586 127.668622,49.5514586 L122.763419,49.5514586 C118.119826,49.5514586 114.261066,45.7581012 114.261066,41.0491058 L114.261066,35.2282643 C114.84969,34.8358481 115.242106,34.1164182 115.242106,33.3315857 L115.242106,29.0804093 C115.242106,28.8842011 115.176704,28.6225903 115.111301,28.4263822 C123.155835,27.2491333 129.369093,19.6624186 129.369093,10.440636 C129.369093,7.4975139 129.369093,0.695631713 122.828821,0.695631713 C122.109391,0.695631713 121.520767,1.28425613 121.520767,2.00368598 C121.520767,2.72311583 122.109391,3.31174025 122.828821,3.31174025 C125.248722,3.31174025 126.752984,4.48898908 126.752984,10.440636 C126.752984,19.0083914 120.539726,25.941079 112.953012,25.941079 C105.366297,25.941079 99.153039,19.0737942 99.153039,10.5714414 C99.153039,3.83496195 101.311329,2.85392125 103.600424,2.85392125 C104.319853,2.85392125 104.908478,2.26529683 104.908478,1.54586699 C104.908478,0.82643714 104.319853,0.23781272 103.600424,0.23781272 C96.5369305,0.23781272 96.5369305,8.0207356 96.5369305,10.5714414 C96.5369305,19.7278213 102.750188,27.3799387 110.794722,28.5571876 C110.729319,28.7533957 110.663917,28.9496039 110.663917,29.2112147 L110.663917,33.3969884 C110.663917,34.1818209 111.056333,34.8358481 111.644957,35.2936671 L111.644957,41.1145085 C111.644957,47.2623636 116.615563,52.2329698 122.763419,52.2329698 L127.668622,52.2329698 C132.639228,52.2329698 136.759599,48.1780016 136.759599,43.1419926 L136.759599,40.0680651 C139.1795,39.4794407 141.010776,37.3211512 141.010776,34.7050426 C141.010776,31.5657124 138.525472,29.0804093 135.451545,29.0804093 Z M136.759599,36.7325267 C136.367183,36.9941376 135.909364,37.124943 135.451545,37.124943 C134.993726,37.124943 134.535907,36.9941376 134.143491,36.7325267 C133.424061,36.2747078 132.900839,35.4898752 132.900839,34.5742372 C132.900839,33.2007802 134.012685,32.0235314 135.451545,32.0235314 C136.825002,32.0235314 138.002251,33.1353775 138.002251,34.5742372 C138.002251,35.4898752 137.479029,36.3401105 136.759599,36.7325267 Z" id="Shape"></path>
            </g>
        </g>
    </g>
</svg>