<?xml version="1.0" encoding="UTF-8"?>
<svg width="50px" height="51px" viewBox="0 0 50 51" version="1.1" xmlns="http://www.w3.org/2000/svg" xmlns:xlink="http://www.w3.org/1999/xlink">
    <!-- Generator: Sketch 45.1 (43504) - http://www.bohemiancoding.com/sketch -->
    <title>Shape</title>
    <desc>Created with Sketch.</desc>
    <defs></defs>
    <g id="App" stroke="none" stroke-width="1" fill="none" fill-rule="evenodd">
        <g id="01.5_echopen_maquette_webdoc" transform="translate(-558.000000, -449.000000)" fill-rule="nonzero" fill="#FFFFFF">
            <g id="CONTENT">
                <g id="Réseaux-sociaux" transform="translate(98.000000, 361.000000)">
                    <g id="3-Entrées" transform="translate(0.000000, 87.000000)">
                        <g id="FB">
                            <path d="M485,5.93390946 C491.675,5.93390946 492.466667,5.95890946 495.104167,6.0797428 C501.879167,6.38807613 505.04375,9.60265946 505.352083,16.3276595 C505.472917,18.9630761 505.495833,19.7547428 505.495833,26.4297428 C505.495833,33.1068261 505.470833,33.8964095 505.352083,36.5318261 C505.041667,43.2505761 501.885417,46.4714095 495.104167,46.7797428 C492.466667,46.9005761 491.679167,46.9255761 485,46.9255761 C478.325,46.9255761 477.533333,46.9005761 474.897917,46.7797428 C468.10625,46.4693261 464.958333,43.2401595 464.65,36.5297428 C464.529167,33.8943261 464.504167,33.1047428 464.504167,26.4276595 C464.504167,19.7526595 464.53125,18.9630761 464.65,16.3255761 C464.960417,9.60265946 468.116667,6.3859928 474.897917,6.07765946 C477.535417,5.95890946 478.325,5.93390946 485,5.93390946 L485,5.93390946 Z M485,1.42765946 C478.210417,1.42765946 477.360417,1.45682613 474.69375,1.57765946 C465.614583,1.99432613 460.56875,7.03182613 460.152083,16.1193261 C460.029167,18.7880761 460,19.6380761 460,26.4276595 C460,33.2172428 460.029167,34.0693261 460.15,36.7359928 C460.566667,45.8151595 465.604167,50.8609928 474.691667,51.2776595 C477.360417,51.3984928 478.210417,51.4276595 485,51.4276595 C491.789583,51.4276595 492.641667,51.3984928 495.308333,51.2776595 C504.379167,50.8609928 509.4375,45.8234928 509.847917,36.7359928 C509.970833,34.0693261 510,33.2172428 510,26.4276595 C510,19.6380761 509.970833,18.7880761 509.85,16.1214095 C509.441667,7.05057613 504.397917,1.99640946 495.310417,1.5797428 C492.641667,1.45682613 491.789583,1.42765946 485,1.42765946 Z M485,13.5901595 C477.910417,13.5901595 472.1625,19.3380761 472.1625,26.4276595 C472.1625,33.5172428 477.910417,39.2672428 485,39.2672428 C492.089583,39.2672428 497.8375,33.5193261 497.8375,26.4276595 C497.8375,19.3380761 492.089583,13.5901595 485,13.5901595 Z M485,34.7609928 C480.397917,34.7609928 476.666667,31.0318261 476.666667,26.4276595 C476.666667,21.8255761 480.397917,18.0943261 485,18.0943261 C489.602083,18.0943261 493.333333,21.8255761 493.333333,26.4276595 C493.333333,31.0318261 489.602083,34.7609928 485,34.7609928 Z M498.345833,10.0839095 C496.6875,10.0839095 495.34375,11.4276595 495.34375,13.0839095 C495.34375,14.7401595 496.6875,16.0839095 498.345833,16.0839095 C500.002083,16.0839095 501.34375,14.7401595 501.34375,13.0839095 C501.34375,11.4276595 500.002083,10.0839095 498.345833,10.0839095 Z" id="Shape"></path>
                        </g>
                    </g>
                </g>
            </g>
        </g>
    </g>
</svg>