<?xml version="1.0" encoding="UTF-8"?>
<svg width="52px" height="53px" viewBox="0 0 52 53" version="1.1" xmlns="http://www.w3.org/2000/svg" xmlns:xlink="http://www.w3.org/1999/xlink">
    <!-- Generator: Sketch 45.1 (43504) - http://www.bohemiancoding.com/sketch -->
    <title>Slack_Mark_Monochrome_White</title>
    <desc>Created with Sketch.</desc>
    <defs></defs>
    <g id="App" stroke="none" stroke-width="1" fill="none" fill-rule="evenodd">
        <g id="01.5_echopen_maquette_webdoc" transform="translate(-274.000000, -448.000000)" fill-rule="nonzero" fill="#FFFFFF">
            <g id="CONTENT">
                <g id="Réseaux-sociaux" transform="translate(98.000000, 361.000000)">
                    <g id="3-Entrées" transform="translate(0.000000, 87.000000)">
                        <g id="FB">
                            <g id="Slack_Mark_Monochrome_White" transform="translate(176.000000, 0.000000)">
                                <rect id="Rectangle-path" transform="translate(25.882520, 26.684964) rotate(-18.518296) translate(-25.882520, -26.684964) " x="22.4233238" y="23.3436948" width="6.91839237" height="6.68253808"></rect>
                                <g id="Group">
                                    <rect id="Rectangle-path" transform="translate(25.882520, 26.684964) rotate(-18.518296) translate(-25.882520, -26.684964) " x="22.4233238" y="23.3436948" width="6.91839237" height="6.68253808"></rect>
                                    <path d="M49.5585311,19.5406244 C44.2284854,1.77380546 36.5433032,-2.3580129 18.7764843,2.97203279 C1.00966529,8.30207848 -3.12215307,15.9872606 2.20789262,33.7540796 C7.53793831,51.5208986 15.2231205,55.652717 32.9899395,50.3226713 C50.7567584,44.9926256 54.8885768,37.3074434 49.5585311,19.5406244 Z M40.5924852,31.0683977 L37.2457124,32.1839886 L38.4026215,35.6547161 C38.8571215,37.0595343 38.1133942,38.5883071 36.708576,39.0428071 C36.4193487,39.1254435 36.0888032,39.2080799 35.7995759,39.1667617 C34.7253032,39.1254435 33.6923486,38.4230344 33.3204849,37.3487616 L32.1635758,33.8780342 L25.2634391,36.1918525 L26.4203482,39.6625799 C26.8748483,41.0673981 26.131121,42.5961709 24.7263027,43.050671 C24.4370754,43.1333073 24.10653,43.2159437 23.8173027,43.1746255 C22.7430299,43.1333073 21.7100753,42.4308982 21.3382117,41.3566254 L20.1813025,37.885898 L16.8345296,39.001489 C16.5453024,39.0841253 16.2147569,39.1667617 15.9255296,39.1254435 C14.8512568,39.0841253 13.8183022,38.3817162 13.4464386,37.3074434 C12.9919386,35.9026252 13.7356659,34.3738524 15.1404841,33.9193524 L18.487257,32.8037614 L16.2560751,26.1515338 L12.9093022,27.2671248 C12.6200749,27.3497612 12.2895294,27.4323975 12.0003021,27.3910793 C10.9260294,27.3497612 9.89307478,26.647352 9.52121113,25.5730793 C9.06671111,24.168261 9.81043841,22.6394882 11.2152567,22.1849882 L14.5620295,21.0693972 L13.4051204,17.5986698 C12.9506204,16.1938516 13.6943477,14.6650788 15.0991659,14.2105787 C16.5039842,13.7560787 18.032757,14.499806 18.487257,15.9046243 L19.6441661,19.3753517 L26.5443028,17.0615334 L25.3873937,13.590806 C24.9328936,12.1859877 25.6766209,10.657215 27.0814392,10.2027149 C28.4862574,9.74821491 30.0150302,10.4919422 30.4695302,11.8967605 L31.6264394,15.3674879 L34.9732123,14.2518969 C36.3780305,13.7973969 37.9068033,14.5411242 38.3613033,15.9459425 C38.8158034,17.3507607 38.072076,18.8795335 36.6672578,19.3340335 L33.3204849,20.4496245 L35.5516668,27.1018521 L38.8984397,25.9862611 C40.303258,25.5317611 41.8320308,26.2754884 42.2865308,27.6803066 C42.7410308,29.0851249 41.9973035,30.6138977 40.5924852,31.0683977 Z" id="Shape"></path>
                                </g>
                            </g>
                        </g>
                    </g>
                </g>
            </g>
        </g>
    </g>
</svg>