<?xml version="1.0" encoding="UTF-8"?>
<svg width="50px" height="50px" viewBox="0 0 50 50" version="1.1" xmlns="http://www.w3.org/2000/svg" xmlns:xlink="http://www.w3.org/1999/xlink">
    <!-- Generator: Sketch 45.1 (43504) - http://www.bohemiancoding.com/sketch -->
    <title>iconmonstr-twitter-3</title>
    <desc>Created with Sketch.</desc>
    <defs></defs>
    <g id="App" stroke="none" stroke-width="1" fill="none" fill-rule="evenodd">
        <g id="01.5_echopen_maquette_webdoc" transform="translate(-194.000000, -451.000000)" fill-rule="nonzero" fill="#FFFFFF">
            <g id="CONTENT">
                <g id="Réseaux-sociaux" transform="translate(98.000000, 361.000000)">
                    <g id="3-Entrées" transform="translate(0.000000, 87.000000)">
                        <g id="FB">
                            <g id="iconmonstr-twitter-3" transform="translate(96.000000, 3.000000)">
                                <path d="M39.1638705,0 L10.3062817,0 C4.61515295,0 0,4.61515295 0,10.3062817 L0,39.1638705 C0,44.8549993 4.61515295,49.4701522 10.3062817,49.4701522 L39.1638705,49.4701522 C44.8570605,49.4701522 49.4701522,44.8549993 49.4701522,39.1638705 L49.4701522,10.3062817 C49.4701522,4.61515295 44.8570605,0 39.1638705,0 Z M38.8773559,19.0398248 C39.3081585,28.5566454 32.2112529,39.167993 19.6458342,39.167993 C15.8242649,39.167993 12.2685978,38.0487308 9.27359229,36.1276399 C12.8643008,36.5501975 16.4467644,35.5546107 19.2912981,33.3263926 C16.3292728,33.2707386 13.8310301,31.3146064 12.9714862,28.6267281 C14.0330332,28.8287312 15.0760289,28.7689548 16.0262681,28.5112977 C12.7715443,27.8578795 10.5268361,24.926773 10.5989801,21.7916021 C11.5100554,22.2986711 12.5551124,22.6037371 13.662007,22.6387784 C10.6505115,20.624931 9.7971514,16.6467062 11.5677706,13.6042919 C14.9049446,17.697947 19.8911237,20.392009 25.514231,20.6744011 C24.5268892,16.4426419 27.7403879,12.3675381 32.1081901,12.3675381 C34.0519548,12.3675381 35.8122677,13.1879181 37.044899,14.5050609 C38.5867188,14.2020562 40.035782,13.6393332 41.3446797,12.8643008 C40.8376107,14.4452845 39.7657574,15.7706723 38.3702868,16.6075424 C39.738961,16.4426419 41.0437363,16.0798607 42.255755,15.5418728 C41.3508635,16.894057 40.2027437,18.0854632 38.8773559,19.0398248 Z" id="Shape"></path>
                            </g>
                        </g>
                    </g>
                </g>
            </g>
        </g>
    </g>
</svg>